<svg width="18" height="18" viewBox="0 0 24 24" fill="none" xmlns="http://www.w3.org/2000/svg">
  <path d="M16.3659 12.2207C16.3846 14.5292 18.4007 15.3005 18.4218 15.3099C18.4046 15.3649 18.0996 16.4252 17.3879 17.4702C16.7739 18.373 16.1379 19.2729 15.1306 19.2917C14.1421 19.3105 13.8253 18.7041 12.6956 18.7041C11.5659 18.7041 11.214 19.2729 10.2787 19.3105C9.30735 19.348 8.57154 18.3355 7.95524 17.4374C6.69962 15.61 5.74829 12.2735 7.03672 10.0329C7.67624 8.9221 8.82266 8.21894 10.0677 8.20018C11.0214 8.18143 11.9223 8.84472 12.5067 8.84472C13.0912 8.84472 14.186 8.04685 15.3352 8.16384C15.8166 8.1826 17.1718 8.36072 18.0399 9.63277C17.9696 9.67607 16.3471 10.6051 16.3659 12.2207ZM14.5848 6.87097C15.0996 6.24743 15.4468 5.3798 15.3521 4.51172C14.6105 4.54454 13.7109 5.01347 13.1802 5.6253C12.7071 6.16774 12.2934 7.04698 12.4046 7.894C13.2318 7.95726 14.0695 7.48364 14.5848 6.87097Z" fill="#FFFFFF"/>
</svg>
