<svg width="18" height="18" viewBox="0 0 18 18" fill="none" xmlns="http://www.w3.org/2000/svg">
  <path d="M17.64 9.20455C17.64 8.56636 17.5827 7.95273 17.4764 7.36364H9V10.8455H13.8436C13.635 11.9705 13.0009 12.9249 12.0473 13.5632V15.8214H14.9564C16.6582 14.2541 17.64 11.9477 17.64 9.20455Z" fill="#4285F4"/>
  <path d="M9 18C11.43 18 13.4673 17.1941 14.9564 15.8214L12.0473 13.5632C11.2418 14.1032 10.2118 14.4227 9 14.4227C6.65591 14.4227 4.67182 12.84 3.96409 10.7127H0.95636V13.0445C2.43773 15.9873 5.48045 18 9 18Z" fill="#34A853"/>
  <path d="M3.96409 10.7127C3.78409 10.1727 3.68182 9.59591 3.68182 9C3.68182 8.40409 3.78409 7.82727 3.96409 7.28727V4.95545H0.956364C0.347727 6.16818 0 7.53682 0 9C0 10.4632 0.347727 11.8318 0.956364 13.0445L3.96409 10.7127Z" fill="#FBBC05"/>
  <path d="M9 3.57727C10.3227 3.57727 11.5105 4.03227 12.4445 4.92545L15.0218 2.34818C13.4632 0.885 11.4259 0 9 0C5.48045 0 2.43773 2.01273 0.956364 4.95545L3.96409 7.28727C4.67182 5.16 6.65591 3.57727 9 3.57727Z" fill="#EA4335"/>
</svg>
